<svg width="20" height="20" viewBox="0 0 20 20" fill="none" xmlns="http://www.w3.org/2000/svg">
<path d="M12.4999 6.66683H12.5083M3.33325 12.5001L6.66659 9.16679C7.04663 8.80109 7.47774 8.60856 7.91659 8.60856C8.35543 8.60856 8.78654 8.80109 9.16659 9.16679L13.3333 13.3335M11.6666 11.6668L12.4999 10.8335C12.88 10.4678 13.3111 10.2752 13.7499 10.2752C14.1888 10.2752 14.6199 10.4678 14.9999 10.8335L16.6666 12.5001M5.83325 3.3335H14.1666C15.5473 3.3335 16.6666 4.45278 16.6666 5.8335V14.1668C16.6666 15.5475 15.5473 16.6668 14.1666 16.6668H5.83325C4.45254 16.6668 3.33325 15.5475 3.33325 14.1668V5.8335C3.33325 4.45278 4.45254 3.3335 5.83325 3.3335Z" stroke="#1B85F3" stroke-width="1.5" stroke-linecap="round" stroke-linejoin="round"/>
</svg>
