<svg width="24" height="24" viewBox="0 0 24 24" fill="none" xmlns="http://www.w3.org/2000/svg">
  <path d="M12 9.2C10.5 9.2 9.2 10.5 9.2 12C9.2 13.5 10.5 14.8 12 14.8C13.5 14.8 14.8 13.5 14.8 12C14.8 10.5 13.5 9.2 12 9.2Z" stroke="#F7FAFC" stroke-width="1.6"/>
  <path d="M19 12C19 11.6 19 11.2 18.9 10.8L17.2 10.5C17.1 10.2 16.9 9.9 16.8 9.6L17.8 8.2C17.3 7.6 16.7 7 16.1 6.5L14.7 7.5C14.4 7.3 14.1 7.2 13.8 7.1L13.5 5.4C13.1 5.3 12.7 5.3 12.3 5.3C11.9 5.3 11.5 5.3 11.1 5.4L10.8 7.1C10.5 7.2 10.2 7.3 9.9 7.5L8.5 6.5C7.9 7 7.3 7.6 6.8 8.2L7.8 9.6C7.6 9.9 7.5 10.2 7.4 10.5L5.7 10.8C5.6 11.2 5.6 11.6 5.6 12C5.6 12.4 5.6 12.8 5.7 13.2L7.4 13.5C7.5 13.8 7.6 14.1 7.8 14.4L6.8 15.8C7.3 16.4 7.9 17 8.5 17.5L9.9 16.5C10.2 16.7 10.5 16.8 10.8 16.9L11.1 18.6C11.5 18.7 11.9 18.7 12.3 18.7C12.7 18.7 13.1 18.7 13.5 18.6L13.8 16.9C14.1 16.8 14.4 16.7 14.7 16.5L16.1 17.5C16.7 17 17.3 16.4 17.8 15.8L16.8 14.4C16.9 14.1 17.1 13.8 17.2 13.5L18.9 13.2C19 12.8 19 12.4 19 12Z" stroke="#F7FAFC" stroke-width="1.2" stroke-linecap="round" stroke-linejoin="round"/>
</svg>
