<svg width="36" height="36" viewBox="0 0 36 36" fill="none" xmlns="http://www.w3.org/2000/svg">
<path d="M10.5 10.5002H9C8.20435 10.5002 7.44129 10.8162 6.87868 11.3788C6.31607 11.9414 6 12.7045 6 13.5002V27.0002C6 27.7958 6.31607 28.5589 6.87868 29.1215C7.44129 29.6841 8.20435 30.0002 9 30.0002H22.5C23.2956 30.0002 24.0587 29.6841 24.6213 29.1215C25.1839 28.5589 25.5 27.7958 25.5 27.0002V25.5002M24 7.50016L28.5 12.0002M30.5775 9.87766C31.1683 9.28689 31.5002 8.48564 31.5002 7.65016C31.5002 6.81469 31.1683 6.01343 30.5775 5.42266C29.9867 4.83189 29.1855 4.5 28.35 4.5C27.5145 4.5 26.7133 4.83189 26.1225 5.42266L13.5 18.0002V22.5002H18L30.5775 9.87766Z" stroke="#0894BD" stroke-width="2" stroke-linecap="round" stroke-linejoin="round"/>
</svg>
